# xmcd
#
# Track frame offsets:
#	150
#	17152
#	34015
#	51157
#	66310
#	84292
#	101425
#	119380
#	136620
#	152585
#	171655
#	189362
#	204872
#	225932
#	243397
#
# Disc length: 3487 seconds
#
# Revision: 7
# Processed by: cddbd v1.5.2PL0 Copyright (c) Steve Scherf et al.
# Submitted via: EasyCDDAExtractor 15.3.0.1
#
DISCID=b70d9d0f
DTITLE=Ana Gabriel - 30 Grandes Exitos - Una Voz Para Tu Corazon - CD 1
DYEAR=2000
DGENRE=Latin
TTITLE0=Simplemente Amigos
TTITLE1=Y Aqui Estoy
TTITLE2=Es El Amor Quien Llega
TTITLE3=Ay Amor
TTITLE4=Destino (Sin Publico)
TTITLE5=Pensar En Ti
TTITLE6=Mar Y Arena
TTITLE7=No A Pedir Perdon
TTITLE8=Tu Y Yo
TTITLE9=Evidencias
TTITLE10=Ven, Ven
TTITLE11=Pecado Original
TTITLE12=Amor
TTITLE13=Soledad (Solidad)
TTITLE14=Hice Bien Quererte (Lambada)
EXTD=YEAR: 2000
EXTT0=
EXTT1=
EXTT2=
EXTT3=
EXTT4=
EXTT5=
EXTT6=
EXTT7=
EXTT8=
EXTT9=
EXTT10=
EXTT11=
EXTT12=
EXTT13=
EXTT14=
PLAYORDER=
